<svg preserveAspectRatio="none" width="100%" height="100%" overflow="visible" style="display: block;" viewBox="0 0 20 20" fill="none" xmlns="http://www.w3.org/2000/svg">
<g id="SVG">
<path id="Vector" d="M16.25 11.875V9.6875C16.25 8.94158 15.9537 8.22621 15.4262 7.69876C14.8988 7.17132 14.1834 6.875 13.4375 6.875H12.1875C11.9389 6.875 11.7004 6.77623 11.5246 6.60041C11.3488 6.4246 11.25 6.18614 11.25 5.9375V4.6875C11.25 3.94158 10.9537 3.22621 10.4262 2.69876C9.89879 2.17132 9.18342 1.875 8.4375 1.875H6.875M10 9.375V15.625M11.875 10.2367C10.9336 9.99423 9.95411 9.93677 8.99083 10.0675C8.54417 10.1275 8.17917 10.4658 8.14 10.915C8.13007 11.0264 8.12507 11.1382 8.125 11.25C8.125 11.6367 8.405 11.9533 8.77083 12.0783L11.2292 12.9217C11.5958 13.0467 11.875 13.3633 11.875 13.75C11.875 13.8633 11.87 13.975 11.86 14.085C11.8208 14.5342 11.4558 14.8725 11.0092 14.9325C10.0458 15.0619 9.06659 15.0045 8.125 14.7633M8.75 1.875H4.6875C4.17 1.875 3.75 2.295 3.75 2.8125V17.1875C3.75 17.705 4.17 18.125 4.6875 18.125H15.3125C15.83 18.125 16.25 17.705 16.25 17.1875V9.375C16.25 7.38588 15.4598 5.47822 14.0533 4.0717C12.6468 2.66518 10.7391 1.875 8.75 1.875Z" stroke="var(--stroke-0, white)" stroke-width="1.25" stroke-linecap="round" stroke-linejoin="round"/>
</g>
</svg>
