<svg width="100" height="100" viewBox="0 0 100 100" fill="none" xmlns="http://www.w3.org/2000/svg">
<path d="M19.8287 69.9376H6.01182C4.07317 69.9376 2.5 68.3644 2.5 66.4258V43.9803C2.5 43.0427 2.86548 42.1608 3.53289 41.4934L16.0626 28.9637C16.73 28.2963 17.612 27.9387 18.5495 27.9387H32.1916C34.1303 27.9387 35.7034 29.5119 35.7034 31.4505V54.0708C35.7034 55.0084 35.3379 55.8903 34.6785 56.5577L22.3235 68.9126C21.6641 69.5801 20.7821 69.9376 19.8367 69.9376H19.8287ZM18.5416 30.7355C18.3509 30.7355 18.1681 30.807 18.0331 30.942L5.50333 43.4718C5.36826 43.6069 5.29675 43.7896 5.29675 43.9803V66.4258C5.29675 66.823 5.6225 67.1409 6.01182 67.1409H19.8287C20.0194 67.1409 20.2021 67.0614 20.3372 66.9343L32.6922 54.5793C32.8272 54.4443 32.8987 54.2615 32.8987 54.0708V31.4505C32.8987 31.0533 32.5809 30.7355 32.1837 30.7355H18.5416Z" fill="#0492C6"/>
<path d="M81.3008 69.9376H67.4839C65.5452 69.9376 63.9721 68.3644 63.9721 66.4258V43.9803C63.9721 43.0427 64.3375 42.1608 64.997 41.5013L77.5267 28.9716C78.1942 28.3042 79.0761 27.9467 80.0136 27.9467H93.6557C95.5944 27.9467 97.1675 29.5198 97.1675 31.4585V54.0788C97.1675 55.0163 96.8021 55.8982 96.1426 56.5656L83.7876 68.9206C83.1361 69.5721 82.2304 69.9455 81.3087 69.9455L81.3008 69.9376ZM80.0136 30.7355C79.8229 30.7355 79.6402 30.8149 79.5051 30.942L66.9754 43.4718C66.8403 43.6068 66.7688 43.7896 66.7688 43.9803V66.4258C66.7688 66.823 67.0866 67.1408 67.4839 67.1408H81.3008C81.4915 67.1408 81.6742 67.0614 81.8093 66.9343L94.1642 54.5793C94.2993 54.4442 94.3708 54.2615 94.3708 54.0708V31.4505C94.3708 31.0533 94.053 30.7355 93.6557 30.7355H80.0136Z" fill="#0492C6"/>
<path d="M41.2662 67.9194H35.9587C34.2743 67.9194 32.8998 66.5449 32.8998 64.8605V55.636C32.8998 54.8176 33.2176 54.0549 33.7976 53.4749L56.3146 30.9579C56.8946 30.3779 57.6573 30.0601 58.4757 30.0601H63.7116C65.3961 30.0601 66.7706 31.4346 66.7706 33.119V42.4388C66.7706 43.2572 66.4528 44.02 65.8728 44.6L43.4273 67.0296C42.8632 67.6016 42.0686 67.9274 41.2662 67.9274V67.9194ZM58.4757 32.8568C58.4042 32.8568 58.3406 32.8806 58.285 32.9363L35.768 55.4532C35.7203 55.5009 35.6886 55.5724 35.6886 55.6439V64.8684C35.6886 65.0115 35.8077 65.1306 35.9508 65.1306H41.2582C41.3297 65.1306 41.3933 65.1068 41.441 65.0591L63.8864 42.6295C63.9341 42.5819 63.9659 42.5103 63.9659 42.4388V33.119C63.9659 32.976 63.8467 32.8568 63.7037 32.8568H58.4677H58.4757Z" fill="#0492C6"/>
</svg>
