<svg width="152" height="38" viewBox="0 0 152 38" fill="none" xmlns="http://www.w3.org/2000/svg">
<path d="M62.7341 26.2016V18.8749C62.7341 17.4833 63.0737 16.4189 63.7571 15.6858C64.4405 14.9486 65.3599 14.58 66.5155 14.58C67.671 14.58 68.5283 14.932 69.1869 15.6361C69.8454 16.3402 70.1767 17.3549 70.1767 18.6803V26.2016H72.3718V18.8749C72.3718 17.4833 72.7114 16.4189 73.3948 15.6858C74.0782 14.9486 74.9977 14.58 76.1532 14.58C77.3087 14.58 78.1661 14.932 78.8246 15.6361C79.4831 16.3402 79.8145 17.3549 79.8145 18.6803V26.2016H82.0096V18.3614C82.0096 17.1313 81.7735 16.0876 81.3013 15.2302C80.8292 14.3729 80.1872 13.7309 79.3713 13.3002C78.5595 12.8695 77.6318 12.6582 76.5881 12.6582C75.5444 12.6582 74.5711 12.915 73.7096 13.4327C72.8481 13.9505 72.231 14.6794 71.8541 15.6154C71.4317 14.6463 70.7897 13.909 69.9241 13.4079C69.0626 12.9067 68.0686 12.6541 66.9462 12.6541C66.0516 12.6541 65.2357 12.8405 64.4943 13.2132C63.753 13.586 63.1648 14.1203 62.7258 14.8161V12.8985H60.5059V26.1975H62.7258L62.7341 26.2016ZM90.8935 26.4211C92.1609 26.4211 93.3164 26.1395 94.3601 25.5721C95.3997 25.0047 96.228 24.2012 96.8369 23.1575C97.4457 22.1137 97.7522 20.9044 97.7522 19.5293C97.7522 18.1543 97.454 16.949 96.8617 15.9136C96.2694 14.8782 95.4577 14.083 94.4347 13.5239C93.4117 12.9647 92.2644 12.6872 90.9929 12.6872C89.7214 12.6872 88.5783 12.9647 87.5512 13.5239C86.5282 14.083 85.7164 14.8823 85.1241 15.926C84.5319 16.9698 84.2337 18.1709 84.2337 19.5293C84.2337 20.8878 84.5236 22.1137 85.0993 23.1575C85.675 24.2012 86.4743 25.0047 87.489 25.5721C88.5079 26.1395 89.6427 26.4211 90.8935 26.4211ZM90.8935 24.4787C90.0983 24.4787 89.3652 24.2964 88.6984 23.932C88.0316 23.5675 87.4973 23.0125 87.0997 22.2711C86.7021 21.5256 86.5033 20.6145 86.5033 19.5293C86.5033 18.4442 86.7063 17.5537 87.1121 16.8124C87.518 16.0669 88.0606 15.516 88.7357 15.1516C89.4108 14.7871 90.1563 14.6048 90.9681 14.6048C91.7798 14.6048 92.5046 14.7871 93.188 15.1516C93.8714 15.516 94.4264 16.071 94.8488 16.8124C95.2713 17.5579 95.4825 18.4608 95.4825 19.5293C95.4825 20.5979 95.2672 21.5049 94.8364 22.2463C94.4057 22.9918 93.8383 23.5468 93.1383 23.9195C92.4384 24.2923 91.6887 24.4787 90.8935 24.4787ZM102.308 26.2016V18.8501C102.308 17.4585 102.652 16.3982 103.343 15.6693C104.035 14.9403 104.967 14.5759 106.139 14.5759C107.311 14.5759 108.206 14.9279 108.873 15.632C109.539 16.3361 109.875 17.3508 109.875 18.6761V26.1975H112.07V18.3572C112.07 16.5142 111.565 15.1019 110.558 14.1244C109.548 13.147 108.231 12.6582 106.603 12.6582C105.692 12.6582 104.859 12.8446 104.101 13.2174C103.343 13.5901 102.747 14.1161 102.308 14.7954V12.9026H100.088V26.2016H102.308ZM120.602 26.4211C121.757 26.4211 122.768 26.1643 123.642 25.6549C124.512 25.1455 125.166 24.5035 125.605 23.7249V26.2016H127.85V12.9026H125.605V15.3296C125.183 14.5676 124.541 13.938 123.675 13.4369C122.814 12.9357 121.795 12.6831 120.623 12.6831C119.451 12.6831 118.357 12.9647 117.388 13.5321C116.419 14.0996 115.661 14.8948 115.106 15.9219C114.551 16.949 114.278 18.1419 114.278 19.5003C114.278 20.8588 114.555 22.0392 115.106 23.0912C115.661 24.1432 116.415 24.9591 117.376 25.5431C118.336 26.1271 119.409 26.417 120.598 26.417L120.602 26.4211ZM121.066 24.4787C120.237 24.4787 119.48 24.2799 118.796 23.8823C118.113 23.4847 117.566 22.9131 117.16 22.1593C116.754 21.4055 116.551 20.5233 116.551 19.5003C116.551 18.4773 116.754 17.6241 117.16 16.8786C117.566 16.1331 118.113 15.5699 118.796 15.1805C119.48 14.7912 120.237 14.5966 121.066 14.5966C121.894 14.5966 122.656 14.7954 123.348 15.193C124.04 15.5906 124.59 16.158 124.996 16.9035C125.402 17.649 125.605 18.5229 125.605 19.5252C125.605 20.5275 125.402 21.4055 124.996 22.1593C124.59 22.9131 124.04 23.4847 123.348 23.8823C122.656 24.2799 121.894 24.4787 121.066 24.4787ZM137.214 26.2016V24.3337H135.578C134.895 24.3337 134.414 24.2012 134.137 23.932C133.86 23.6669 133.723 23.2072 133.723 22.5611V14.7208H137.214V12.9026H133.723V9.55197H131.503V12.9026H129.772V14.7208H131.503V22.5611C131.503 23.8533 131.814 24.7851 132.431 25.3526C133.048 25.92 133.975 26.2016 135.214 26.2016H137.214ZM145.142 26.4211C146.409 26.4211 147.564 26.1395 148.608 25.5721C149.648 25.0047 150.476 24.2012 151.085 23.1575C151.694 22.1137 152 20.9044 152 19.5293C152 18.1543 151.702 16.949 151.11 15.9136C150.517 14.8782 149.706 14.083 148.683 13.5239C147.66 12.9647 146.512 12.6872 145.241 12.6872C143.969 12.6872 142.826 12.9647 141.799 13.5239C140.776 14.083 139.964 14.8823 139.372 15.926C138.78 16.9698 138.482 18.1709 138.482 19.5293C138.482 20.8878 138.772 22.1137 139.347 23.1575C139.923 24.2012 140.722 25.0047 141.737 25.5721C142.756 26.1395 143.891 26.4211 145.142 26.4211ZM145.142 24.4787C144.346 24.4787 143.613 24.2964 142.946 23.932C142.28 23.5675 141.745 23.0125 141.348 22.2711C140.95 21.5256 140.751 20.6145 140.751 19.5293C140.751 18.4442 140.954 17.5537 141.36 16.8124C141.766 16.0669 142.309 15.516 142.984 15.1516C143.659 14.7871 144.404 14.6048 145.216 14.6048C146.028 14.6048 146.753 14.7871 147.436 15.1516C148.119 15.516 148.674 16.071 149.097 16.8124C149.519 17.5579 149.731 18.4608 149.731 19.5293C149.731 20.5979 149.515 21.5049 149.084 22.2463C148.654 22.9918 148.086 23.5468 147.386 23.9195C146.686 24.2923 145.937 24.4787 145.142 24.4787Z" fill="white"/>
<path d="M9.03305 30.393H1.83063C0.820057 30.393 0 29.573 0 28.5624V16.8621C0 16.3734 0.190519 15.9136 0.538422 15.5657L7.06988 9.03428C7.41779 8.68638 7.87751 8.5 8.36624 8.5H15.4775C16.4881 8.5 17.3082 9.32006 17.3082 10.3306V22.1221C17.3082 22.6108 17.1176 23.0705 16.7739 23.4184L10.3335 29.8587C9.98978 30.2067 9.53005 30.393 9.03719 30.393H9.03305ZM8.36209 9.95788C8.26269 9.95788 8.16743 9.99515 8.09703 10.0656L1.56556 16.597C1.49515 16.6674 1.45788 16.7627 1.45788 16.8621V28.5624C1.45788 28.7695 1.62769 28.9352 1.83063 28.9352H9.03305C9.13245 28.9352 9.22771 28.8937 9.29812 28.8275L15.7385 22.3871C15.8089 22.3167 15.8461 22.2215 15.8461 22.1221V10.3306C15.8461 10.1235 15.6805 9.95788 15.4734 9.95788H8.36209Z" fill="#0492C6"/>
<path d="M41.077 30.393H33.8746C32.864 30.393 32.0439 29.573 32.0439 28.5624V16.8621C32.0439 16.3734 32.2345 15.9137 32.5782 15.5699L39.1097 9.03843C39.4576 8.69053 39.9173 8.50415 40.406 8.50415H47.5173C48.5279 8.50415 49.348 9.32421 49.348 10.3348V22.1262C49.348 22.6149 49.1575 23.0747 48.8137 23.4226L42.3733 29.8629C42.0337 30.2025 41.5616 30.3972 41.0811 30.3972L41.077 30.393ZM40.406 9.95789C40.3066 9.95789 40.2114 9.9993 40.141 10.0656L33.6095 16.597C33.5391 16.6674 33.5018 16.7627 33.5018 16.8621V28.5624C33.5018 28.7695 33.6675 28.9352 33.8746 28.9352H41.077C41.1764 28.9352 41.2717 28.8937 41.3421 28.8275L47.7824 22.3871C47.8528 22.3167 47.8901 22.2215 47.8901 22.1221V10.3306C47.8901 10.1236 47.7244 9.95789 47.5173 9.95789H40.406Z" fill="#0492C6"/>
<path d="M20.2079 29.341H17.4412C16.5632 29.341 15.8467 28.6245 15.8467 27.7465V22.938C15.8467 22.5114 16.0123 22.1138 16.3147 21.8114L28.0523 10.0738C28.3546 9.7715 28.7522 9.60583 29.1788 9.60583H31.9082C32.7862 9.60583 33.5027 10.3223 33.5027 11.2004V16.0586C33.5027 16.4852 33.3371 16.8828 33.0347 17.1851L21.3344 28.8772C21.0404 29.1754 20.6262 29.3452 20.2079 29.3452V29.341ZM29.1788 11.0637C29.1415 11.0637 29.1084 11.0761 29.0794 11.1051L17.3418 22.8427C17.317 22.8676 17.3004 22.9048 17.3004 22.9421V27.7506C17.3004 27.8252 17.3625 27.8873 17.4371 27.8873H20.2037C20.241 27.8873 20.2742 27.8749 20.299 27.85L31.9993 16.158C32.0242 16.1332 32.0407 16.0959 32.0407 16.0586V11.2004C32.0407 11.1258 31.9786 11.0637 31.9041 11.0637H29.1747H29.1788Z" fill="#0492C6"/>
</svg>
