<svg width="50" height="49" viewBox="0 0 50 49" fill="none" xmlns="http://www.w3.org/2000/svg">
<path d="M9.03305 34.893H1.83063C0.820057 34.893 0 34.073 0 33.0624V21.3621C0 20.8734 0.190519 20.4136 0.538422 20.0657L7.06988 13.5343C7.41779 13.1864 7.87751 13 8.36624 13H15.4775C16.4881 13 17.3082 13.8201 17.3082 14.8306V26.6221C17.3082 27.1108 17.1176 27.5705 16.7739 27.9184L10.3335 34.3587C9.98978 34.7067 9.53005 34.893 9.03719 34.893H9.03305ZM8.36209 14.4579C8.26269 14.4579 8.16743 14.4952 8.09703 14.5656L1.56556 21.097C1.49515 21.1674 1.45788 21.2627 1.45788 21.3621V33.0624C1.45788 33.2695 1.62769 33.4352 1.83063 33.4352H9.03305C9.13245 33.4352 9.22771 33.3937 9.29812 33.3275L15.7385 26.8871C15.8089 26.8167 15.8461 26.7215 15.8461 26.6221V14.8306C15.8461 14.6235 15.6805 14.4579 15.4734 14.4579H8.36209Z" fill="#0492C6"/>
<path d="M41.077 34.893H33.8746C32.864 34.893 32.0439 34.073 32.0439 33.0624V21.3621C32.0439 20.8734 32.2345 20.4137 32.5782 20.0699L39.1097 13.5384C39.4576 13.1905 39.9173 13.0042 40.406 13.0042H47.5173C48.5279 13.0042 49.348 13.8242 49.348 14.8348V26.6262C49.348 27.1149 49.1575 27.5747 48.8137 27.9226L42.3733 34.3629C42.0337 34.7025 41.5616 34.8972 41.0811 34.8972L41.077 34.893ZM40.406 14.4579C40.3066 14.4579 40.2114 14.4993 40.141 14.5656L33.6095 21.097C33.5391 21.1674 33.5018 21.2627 33.5018 21.3621V33.0624C33.5018 33.2695 33.6675 33.4352 33.8746 33.4352H41.077C41.1764 33.4352 41.2717 33.3937 41.3421 33.3275L47.7824 26.8871C47.8528 26.8167 47.8901 26.7215 47.8901 26.6221V14.8306C47.8901 14.6236 47.7244 14.4579 47.5173 14.4579H40.406Z" fill="#0492C6"/>
<path d="M20.2079 33.841H17.4412C16.5632 33.841 15.8467 33.1245 15.8467 32.2465V27.438C15.8467 27.0114 16.0123 26.6138 16.3147 26.3114L28.0523 14.5738C28.3546 14.2715 28.7522 14.1058 29.1788 14.1058H31.9082C32.7862 14.1058 33.5027 14.8223 33.5027 15.7004V20.5586C33.5027 20.9852 33.3371 21.3828 33.0347 21.6851L21.3344 33.3772C21.0404 33.6754 20.6262 33.8452 20.2079 33.8452V33.841ZM29.1788 15.5637C29.1415 15.5637 29.1084 15.5761 29.0794 15.6051L17.3418 27.3427C17.317 27.3676 17.3004 27.4048 17.3004 27.4421V32.2506C17.3004 32.3252 17.3625 32.3873 17.4371 32.3873H20.2037C20.241 32.3873 20.2742 32.3749 20.299 32.35L31.9993 20.658C32.0242 20.6332 32.0407 20.5959 32.0407 20.5586V15.7004C32.0407 15.6258 31.9786 15.5637 31.9041 15.5637H29.1747H29.1788Z" fill="#0492C6"/>
</svg>
